<?xml version="1.0" encoding="UTF-8" standalone="no"?>
<!DOCTYPE svg PUBLIC "-//W3C//DTD SVG 1.1//EN" "http://www.w3.org/Graphics/SVG/1.1/DTD/svg11.dtd">
<svg xmlns="http://www.w3.org/2000/svg" version="1.1" viewBox="0 0 128 128">
<path fill="#000000" d="
  M 21.31 29.59
  C 21.26 32.61 22.12 39.96 19.43 41.93
  C 14.77 45.35 10.79 41.52 10.77 36.63
  Q 10.73 25.94 10.75 15.24
  C 10.75 12.22 13.64 10.79 16.52 10.77
  Q 26.62 10.72 36.72 10.76
  C 42.23 10.77 45.15 17.00 40.85 20.07
  C 38.23 21.94 32.81 21.27 29.43 21.26
  Q 28.86 21.26 29.27 21.66
  L 57.25 49.64
  Q 59.00 51.38 58.69 53.84
  C 57.93 59.68 52.07 59.61 48.47 56.04
  Q 35.10 42.78 21.79 29.39
  Q 21.32 28.92 21.31 29.59
  Z"
/>
<path fill="#000000" d="
  M 106.94 29.61
  Q 107.04 28.53 106.28 29.30
  Q 93.01 42.75 79.50 56.00
  C 73.20 62.17 65.99 54.76 71.06 49.56
  Q 84.74 35.52 98.69 21.77
  Q 99.19 21.28 98.48 21.27
  L 89.60 21.22
  Q 86.76 21.20 85.84 18.52
  C 84.03 13.24 87.03 10.78 92.07 10.76
  Q 101.90 10.73 111.73 10.76
  C 114.97 10.77 117.21 12.51 117.23 15.79
  Q 117.28 26.26 117.24 36.72
  C 117.22 42.22 110.96 44.86 107.91 40.79
  C 106.05 38.31 106.67 32.82 106.94 29.61
  Z"
/>
<path fill="#000000" d="
  M 21.31 98.59
  Q 21.32 99.07 21.66 98.73
  Q 34.61 85.75 47.34 73.04
  Q 50.28 70.11 52.00 69.47
  C 57.22 67.54 60.92 74.57 56.49 79.06
  Q 43.60 92.10 29.73 105.87
  Q 28.87 106.72 30.08 106.73
  Q 36.42 106.76 43.49 106.76
  C 49.04 106.75 50.52 117.24 41.52 117.25
  C 33.28 117.25 24.82 116.90 16.61 117.37
  C 11.05 117.69 10.61 113.66 10.68 109.10
  Q 10.85 96.79 10.72 84.50
  C 10.67 80.08 17.72 78.40 20.28 82.23
  C 22.15 85.02 21.26 94.95 21.31 98.59
  Z"
/>
<path fill="#000000" d="
  M 98.29 106.69
  Q 99.11 106.68 98.53 106.10
  Q 84.65 92.35 70.96 78.54
  C 65.89 73.43 73.34 65.83 78.53 70.96
  Q 92.36 84.64 106.09 98.55
  Q 106.74 99.21 106.74 98.28
  C 106.75 94.64 105.83 84.87 107.77 82.03
  C 109.75 79.12 115.06 79.39 116.65 82.65
  Q 117.30 83.99 117.27 86.95
  Q 117.14 99.44 117.39 111.92
  C 117.46 115.12 115.74 117.46 112.47 117.40
  Q 99.19 117.15 85.91 117.26
  C 80.19 117.31 78.11 110.42 82.14 107.77
  C 85.09 105.82 94.55 106.77 98.29 106.69
  Z"
/>
</svg>
