<?xml version="1.0" encoding="UTF-8" standalone="no"?>
<!DOCTYPE svg PUBLIC "-//W3C//DTD SVG 1.1//EN" "http://www.w3.org/Graphics/SVG/1.1/DTD/svg11.dtd">
<svg xmlns="http://www.w3.org/2000/svg" version="1.1" viewBox="0 0 512 512">
<path fill="#000000" d="
  M 252.31 0.00
  L 259.81 0.00
  C 399.30 2.86 508.39 113.46 512.00 252.06
  L 512.00 259.56
  C 508.92 398.61 398.56 509.65 258.94 512.00
  L 252.69 512.00
  C 113.37 509.22 3.29 398.95 0.00 259.94
  L 0.00 252.19
  Q 2.55 160.41 60.26 91.36
  C 107.95 34.32 178.08 1.48 252.31 0.00
  Z
  M 383.84 170.25
  A 20.95 20.95 0.0 0 0 362.89 149.30
  L 149.11 149.30
  A 20.95 20.95 0.0 0 0 128.16 170.25
  L 128.16 171.01
  A 20.95 20.95 0.0 0 0 149.11 191.96
  L 362.89 191.96
  A 20.95 20.95 0.0 0 0 383.84 171.01
  L 383.84 170.25
  Z
  M 383.86 255.62
  A 20.84 20.84 0.0 0 0 363.02 234.78
  L 148.98 234.78
  A 20.84 20.84 0.0 0 0 128.14 255.62
  L 128.14 256.38
  A 20.84 20.84 0.0 0 0 148.98 277.22
  L 363.02 277.22
  A 20.84 20.84 0.0 0 0 383.86 256.38
  L 383.86 255.62
  Z
  M 383.84 340.99
  A 20.95 20.95 0.0 0 0 362.89 320.04
  L 149.11 320.04
  A 20.95 20.95 0.0 0 0 128.16 340.99
  L 128.16 341.75
  A 20.95 20.95 0.0 0 0 149.11 362.70
  L 362.89 362.70
  A 20.95 20.95 0.0 0 0 383.84 341.75
  L 383.84 340.99
  Z"
/>
</svg>
