<?xml version="1.0" encoding="UTF-8" standalone="no"?>
<svg
   version="1.1"
   viewBox="0 0 64.055695 44.8669"
   id="svg8600"
   sodipodi:docname="icono.svg"
   width="64.055695"
   height="44.866901"
   inkscape:version="1.2.1 (9c6d41e410, 2022-07-14)"
   xmlns:inkscape="http://www.inkscape.org/namespaces/inkscape"
   xmlns:sodipodi="http://sodipodi.sourceforge.net/DTD/sodipodi-0.dtd"
   xmlns="http://www.w3.org/2000/svg"
   xmlns:svg="http://www.w3.org/2000/svg">
  <defs
     id="defs8604" />
  <sodipodi:namedview
     id="namedview8602"
     pagecolor="#ffffff"
     bordercolor="#666666"
     borderopacity="1.0"
     inkscape:showpageshadow="2"
     inkscape:pageopacity="0.0"
     inkscape:pagecheckerboard="0"
     inkscape:deskcolor="#d1d1d1"
     showgrid="false"
     inkscape:zoom="8.038301"
     inkscape:cx="46.527245"
     inkscape:cy="18.536255"
     inkscape:window-width="1366"
     inkscape:window-height="705"
     inkscape:window-x="-8"
     inkscape:window-y="-8"
     inkscape:window-maximized="1"
     inkscape:current-layer="g8746" />
  <g
     id="g8746"
     transform="matrix(0.50043509,0,0,0.50043509,0,-9.5831913)">
    <path
       stroke="#243e4f"
       vector-effect="non-scaling-stroke"
       d="M 91.61,29.87 Q 90.14,31.26 88.5,30.7 78.42,27.23 69.51,24.44"
       id="path8554"
       style="fill:none;stroke-width:2;stroke-linecap:butt" />
    <path
       stroke="#203747"
       vector-effect="non-scaling-stroke"
       d="M 69.51,24.44 Q 64.92,22.17 62.27,23.06 33.14,32.86 4.5,42.55 a 0.25,0.25 0 0 0 -0.03,0.46 q 27.75,13.5 55.49,27.03 c 3.66,1.78 7.23,1.02 10.57,-1.22"
       id="path8556"
       style="fill:none;stroke-width:2;stroke-linecap:butt" />
    <path
       stroke="#243e4f"
       vector-effect="non-scaling-stroke"
       d="m 70.53,68.82 35.51,-17.28 q 0.73,-0.36 -0.05,-0.56 L 72.07,42.14 q -0.62,-0.16 -0.99,0.36 -1.36,1.95 -3.71,1.97 c -2.74,0.03 -7.33,0.73 -9.6,-1.03 -3.73,-2.89 -1.26,-8.56 2.08,-10.63 4.69,-2.89 10.32,-0.15 11.97,4.89 q 0.18,0.53 0.72,0.67 l 39.07,10.22 q 0.31,0.08 0.6,-0.05 5.89,-2.8 11.77,-5.8 a 0.04031129,0.04031129 0 0 0 -0.01,-0.08 Q 103.36,35.85 97.31,33.7 95.83,33.17 96,31.3"
       id="path8558"
       style="fill:none;stroke-width:2;stroke-linecap:butt" />
    <path
       stroke="#203747"
       vector-effect="non-scaling-stroke"
       d="m 60.66,40.71 6.68,0.04 a 0.93,0.93 0 0 0 0.94,-0.92 v -0.19 a 4.1,4.12 0.4 0 0 -4.07,-4.15 h -0.34 a 4.1,4.12 0.4 0 0 -4.13,4.09 v 0.19 a 0.93,0.93 0 0 0 0.92,0.94"
       id="path8560"
       style="fill:none;stroke-width:2;stroke-linecap:butt" />
    <path
       stroke="#1b2f3f"
       vector-effect="non-scaling-stroke"
       d="m 37.62,83.94 q 10.37,6.46 22.75,9.94 0.85,0.23 1.26,1.78"
       id="path8562"
       style="fill:none;stroke-width:2;stroke-linecap:butt" />
    <path
       stroke="#80703f"
       vector-effect="non-scaling-stroke"
       d="m 61.63,95.66 c -0.34,1.06 -1.22,2 -2.4,1.72 C 49.04,94.97 38.33,89.4 30.21,83.6 q -1.34,-0.96 -1.56,0.67 -0.23,1.6 -0.32,2.29 -0.23,1.62 1.05,2.65 9.03,7.3 21.59,12.52 c 7.03,2.93 12.91,4.52 20.15,2.14 9.97,-3.28 19.71,-8.34 27.67,-14.78 a 2.9,2.92 62.5 0 0 0.97,-3.05 l -0.57,-2 Q 98.84,82.8 97.79,83.55 85.38,92.47 69.75,97.19 67.04,98 66.45,95.66"
       id="path8564"
       style="fill:none;stroke-width:2;stroke-linecap:butt" />
    <path
       stroke="#1b2f3f"
       vector-effect="non-scaling-stroke"
       d="m 66.45,95.66 q 0.17,-1.48 1.35,-1.81 15.95,-4.54 29.21,-14.33 0.38,-0.28 0.25,-0.74 L 92.75,62.56 a 0.28,0.28 0 0 0 -0.4,-0.18 q -12.06,5.96 -22.85,11.11 -5.62,2.68 -10.16,0.44 -8.48,-4.17 -17,-8.27"
       id="path8566"
       style="fill:none;stroke-width:2;stroke-linecap:butt" />
    <path
       stroke="#152632"
       vector-effect="non-scaling-stroke"
       d="M 42.34,65.66 35.7,62.48 q -0.44,-0.21 -0.57,0.26 l -4.35,15.95 q -0.15,0.54 0.31,0.85 l 6.53,4.4"
       id="path8568"
       style="fill:none;stroke-width:2;stroke-linecap:butt" />
    <path
       stroke="#305571"
       vector-effect="non-scaling-stroke"
       d="M 42.34,65.66 37.62,83.94"
       id="path8570"
       style="fill:none;stroke-width:2;stroke-linecap:butt" />
    <path
       stroke="#9b9f7d"
       vector-effect="non-scaling-stroke"
       d="m 66.45,95.66 q -2.43,0.65 -4.82,0"
       id="path8572"
       style="fill:none;stroke-width:2;stroke-linecap:butt" />
    <path
       stroke="#437496"
       vector-effect="non-scaling-stroke"
       d="m 69.51,24.44 q -24.91,8.53 -48.95,16.61 -1.83,0.62 -1.11,2.4 a 1.74,1.72 2.1 0 0 0.85,0.9 l 50.23,24.47"
       id="path8578"
       style="fill:none;stroke-width:2;stroke-linecap:butt" />
    <path
       fill="#000000"
       d="M 91.61,29.87 C 90.63,30.796667 89.593333,31.073333 88.5,30.7 81.78,28.386667 75.45,26.3 69.51,24.44 66.45,22.926667 64.036667,22.466667 62.27,23.06 42.85,29.593333 23.593333,36.09 4.5,42.55 c -0.2093844,0.07232 -0.2282174,0.361095 -0.03,0.46 18.5,9 36.996667,18.01 55.49,27.03 3.66,1.78 7.23,1.02 10.57,-1.22 l 35.51,-17.28 c 0.48667,-0.24 0.47,-0.426667 -0.05,-0.56 L 72.07,42.14 c -0.413333,-0.106667 -0.743333,0.01333 -0.99,0.36 -0.906667,1.3 -2.143333,1.956667 -3.71,1.97 -2.74,0.03 -7.33,0.73 -9.6,-1.03 -3.73,-2.89 -1.26,-8.56 2.08,-10.63 4.69,-2.89 10.32,-0.15 11.97,4.89 0.12,0.353333 0.36,0.576667 0.72,0.67 l 39.07,10.22 c 0.20667,0.05333 0.40667,0.03667 0.6,-0.05 3.92667,-1.866667 7.85,-3.8 11.77,-5.8 0.0533,-0.0067 0.0433,-0.08668 -0.01,-0.08 C 110.23,38.12 101.34333,35.133333 97.31,33.7 96.323333,33.346667 95.886667,32.546667 96,31.3 c 0.72,-1.01 1.5,-1.48 2.79,-1.04 8.78,2.946667 17.55,5.906667 26.31,8.88 1.48,0.5 2.44667,1.463333 2.9,2.89 v 2.1 c -3.88,2.853333 -8.38667,5.353333 -13.52,7.5 -0.33333,0.14 -0.5,0.39 -0.5,0.75 0,0 -4.22719,3.01243 -3.73,1.88 0,-0.393333 -0.17667,-0.503333 -0.53,-0.33 l -12.94,6.32 c -0.292934,0.142191 -0.45046,0.461388 -0.38,0.77 1.773333,7.906667 3.98333,15.466667 6.63,22.68 1.16,3.15 0.34,6.62 -2.35,8.72 -8.62,6.7 -18.243333,11.76 -28.87,15.18 -8.09,2.6 -15.16,0.65 -22.8,-2.58 C 41.85,101.98667 34.99,98.1 28.43,93.36 25.34,91.13 23.49,87.85 24.87,84.05 27.47,76.916667 29.713333,69.236667 31.6,61.01 31.68667,60.636667 31.56,60.366667 31.22,60.2 L 0,44.52 v -2.77 c 0.63333333,-1.3 1.2933333,-2.066667 1.98,-2.3 19.42,-6.566667 38.843333,-13.13 58.27,-19.69 4.27,-1.44 7.25,-0.11 12.58,1.69 5.86,1.98 11.653333,3.926667 17.38,5.84 0.846667,0.286667 1.313333,1.146667 1.4,2.58 z m -30.95,10.84 6.68,0.04 c 0.513637,0.0056 0.934507,-0.406363 0.94,-0.92 v -0.19 c 0.0167,-2.27549 -1.805555,-4.133566 -4.07,-4.15 h -0.34 c -2.26434,-0.01656 -4.113418,1.814614 -4.13,4.09 v 0.19 c -0.0056,0.513637 0.406363,0.934507 0.92,0.94 z M 37.62,83.94 c 6.913333,4.306667 14.496667,7.62 22.75,9.94 0.566667,0.153333 0.986667,0.746667 1.26,1.78 -0.34,1.06 -1.22,2 -2.4,1.72 C 49.04,94.97 38.33,89.4 30.21,83.6 c -0.893333,-0.64 -1.413333,-0.416667 -1.56,0.67 -0.153333,1.066667 -0.26,1.83 -0.32,2.29 -0.153333,1.08 0.196667,1.963333 1.05,2.65 6.02,4.866667 13.216667,9.04 21.59,12.52 7.03,2.93 12.91,4.52 20.15,2.14 9.97,-3.28 19.71,-8.34 27.67,-14.78 0.904912,-0.735798 1.28631,-1.935036 0.97,-3.05 l -0.57,-2 c -0.233333,-0.826667 -0.7,-0.99 -1.4,-0.49 -8.273333,5.946667 -17.62,10.493333 -28.04,13.64 -1.806667,0.54 -2.906667,0.03 -3.3,-1.53 0.113333,-0.986667 0.563333,-1.59 1.35,-1.81 10.633333,-3.026667 20.37,-7.803333 29.21,-14.33 0.253333,-0.186667 0.336667,-0.433333 0.25,-0.74 L 92.75,62.56 c -0.04427,-0.174803 -0.239812,-0.262799 -0.4,-0.18 -8.04,3.973333 -15.656667,7.676667 -22.85,11.11 -3.746667,1.786667 -7.133333,1.933333 -10.16,0.44 -5.653333,-2.78 -11.32,-5.536667 -17,-8.27 L 35.7,62.48 c -0.293333,-0.14 -0.483333,-0.05333 -0.57,0.26 l -4.35,15.95 c -0.1,0.36 0.0033,0.643333 0.31,0.85 z"
       id="path8582"
       sodipodi:nodetypes="cccccccccccccccccccccccccccccccccccccccccccccccccccccccccccccccccccccccccccccccccccccc" />
    <path
       fill="#3f6d8e"
       d="m 69.51,24.44 q -24.91,8.53 -48.95,16.61 -1.83,0.62 -1.11,2.4 a 1.74,1.72 2.1 0 0 0.85,0.9 l 50.23,24.47 c -3.34,2.24 -6.91,3 -10.57,1.22 Q 32.22,56.51 4.47,43.01 A 0.25,0.25 0 0 1 4.5,42.55 q 28.64,-9.69 57.77,-19.49 2.65,-0.89 7.24,1.38 z"
       id="path8584" />
    <path
       fill="#477b9e"
       d="m 69.51,24.44 q 8.91,2.79 18.99,6.26 1.64,0.56 3.11,-0.83 L 96,31.3 q -0.17,1.87 1.31,2.4 6.05,2.15 26.66,8.96 a 0.04031129,0.04031129 0 0 1 0.01,0.08 q -5.88,3 -11.77,5.8 -0.29,0.13 -0.6,0.05 L 72.54,38.37 Q 72,38.23 71.82,37.7 c -1.65,-5.04 -7.28,-7.78 -11.97,-4.89 -3.34,2.07 -5.81,7.74 -2.08,10.63 2.27,1.76 6.86,1.06 9.6,1.03 q 2.35,-0.02 3.71,-1.97 0.37,-0.52 0.99,-0.36 l 33.92,8.84 q 0.78,0.2 0.05,0.56 L 70.53,68.82 20.3,44.35 a 1.74,1.72 2.1 0 1 -0.85,-0.9 q -0.72,-1.78 1.11,-2.4 24.04,-8.08 48.95,-16.61 z"
       id="path8586" />
    <path
       fill="#3f6d8e"
       d="m 60.66,40.71 a 0.93,0.93 0 0 1 -0.92,-0.94 v -0.19 a 4.12,4.1 -89.6 0 1 4.13,-4.09 h 0.34 a 4.12,4.1 -89.6 0 1 4.07,4.15 v 0.19 a 0.93,0.93 0 0 1 -0.94,0.92 z"
       id="path8588" />
    <path
       fill="#294b64"
       d="m 42.34,65.66 -4.72,18.28 -6.53,-4.4 q -0.46,-0.31 -0.31,-0.85 l 4.35,-15.95 q 0.13,-0.47 0.57,-0.26 z"
       id="path8590" />
    <path
       fill="#365e7d"
       d="m 66.45,95.66 q -2.43,0.65 -4.82,0 Q 61.22,94.11 60.37,93.88 47.99,90.4 37.62,83.94 l 4.72,-18.28 q 8.52,4.1 17,8.27 4.54,2.24 10.16,-0.44 10.79,-5.15 22.85,-11.11 a 0.28,0.28 0 0 1 0.4,0.18 l 4.51,16.22 q 0.13,0.46 -0.25,0.74 -13.26,9.79 -29.21,14.33 -1.18,0.33 -1.35,1.81 z"
       id="path8592" />
    <path
       fill="#ffe07d"
       d="m 61.63,95.66 q 2.39,0.65 4.82,0 0.59,2.34 3.3,1.53 15.63,-4.72 28.04,-13.64 1.05,-0.75 1.4,0.49 l 0.57,2 a 2.92,2.9 -27.5 0 1 -0.97,3.05 c -7.96,6.44 -17.7,11.5 -27.67,14.78 -7.24,2.38 -13.12,0.79 -20.15,-2.14 Q 38.41,96.51 29.38,89.21 28.1,88.18 28.33,86.56 q 0.09,-0.69 0.32,-2.29 0.22,-1.63 1.56,-0.67 c 8.12,5.8 18.83,11.37 29.02,13.78 1.18,0.28 2.06,-0.66 2.4,-1.72 z"
       id="path8594" />
  </g>
</svg>
