<?xml version="1.0" encoding="UTF-8" standalone="no"?>
<!DOCTYPE svg PUBLIC "-//W3C//DTD SVG 1.1//EN" "http://www.w3.org/Graphics/SVG/1.1/DTD/svg11.dtd">
<svg xmlns="http://www.w3.org/2000/svg" version="1.1" viewBox="0.00 0.00 128.00 128.00">
<path stroke="#b6e680" stroke-width="2.00" fill="none" stroke-linecap="butt" vector-effect="non-scaling-stroke" d="
  M 54.32 36.70
  A 4.06 4.06 0.0 0 0 48.00 40.08
  L 48.00 87.92
  A 4.06 4.06 0.0 0 0 54.32 91.30
  L 90.20 67.38
  A 4.06 4.06 0.0 0 0 90.20 60.62
  L 54.32 36.70"
/>
<path fill="#6dcd01" d="
  M 60.37 0.00
  L 67.73 0.00
  Q 95.95 2.28 113.41 23.34
  Q 126.41 39.03 128.00 60.39
  L 128.00 67.74
  Q 125.26 98.96 100.50 116.55
  Q 86.28 126.65 67.59 128.00
  L 60.26 128.00
  Q 28.11 125.10 10.57 99.20
  Q 1.27 85.47 0.00 67.59
  L 0.00 60.04
  Q 1.48 41.17 11.87 26.87
  Q 29.54 2.57 60.37 0.00
  Z
  M 54.32 36.70
  A 4.06 4.06 0.0 0 0 48.00 40.08
  L 48.00 87.92
  A 4.06 4.06 0.0 0 0 54.32 91.30
  L 90.20 67.38
  A 4.06 4.06 0.0 0 0 90.20 60.62
  L 54.32 36.70
  Z"
/>
<path fill="#ffffff" d="
  M 54.32 36.70
  L 90.20 60.62
  A 4.06 4.06 0.0 0 1 90.20 67.38
  L 54.32 91.30
  A 4.06 4.06 0.0 0 1 48.00 87.92
  L 48.00 40.08
  A 4.06 4.06 0.0 0 1 54.32 36.70
  Z"
/>
</svg>
