<?xml version="1.0" encoding="UTF-8" standalone="no"?>
<!DOCTYPE svg PUBLIC "-//W3C//DTD SVG 1.1//EN" "http://www.w3.org/Graphics/SVG/1.1/DTD/svg11.dtd">
<svg xmlns="http://www.w3.org/2000/svg" version="1.1" viewBox="0 0 128 128">
<path fill="#000000" d="
  M 18.85 11.63
  C 26.85 19.01 34.76 26.84 42.31 34.97
  Q 42.85 35.55 42.84 34.75
  L 42.72 26.12
  Q 42.67 23.00 45.59 21.89
  C 50.77 19.94 53.30 23.32 53.25 28.17
  Q 53.16 37.47 53.38 46.75
  C 53.48 51.22 51.60 53.49 47.15 53.39
  Q 36.35 53.13 25.77 53.27
  Q 22.66 53.31 21.80 50.32
  C 19.12 41.09 29.52 42.59 34.47 42.88
  Q 35.55 42.95 34.78 42.18
  Q 24.31 31.65 13.78 21.17
  C 10.29 17.70 8.98 14.00 13.99 11.10
  Q 16.62 9.57 18.85 11.63
  Z"
/>
<path fill="#000000" d="
  M 93.31 42.82
  L 102.47 42.75
  Q 105.37 42.73 106.17 45.51
  C 107.71 50.84 104.95 53.31 99.83 53.25
  Q 90.85 53.16 81.89 53.37
  C 77.44 53.47 74.22 52.04 74.56 47.21
  C 74.99 41.06 74.78 34.73 74.74 28.56
  C 74.71 23.37 76.67 20.22 82.35 21.82
  Q 85.20 22.62 85.23 25.58
  L 85.31 34.67
  Q 85.31 35.30 85.76 34.86
  C 89.89 30.73 107.32 11.34 111.59 10.73
  C 117.16 9.94 118.78 16.60 114.90 20.47
  Q 104.17 31.19 93.48 41.95
  A 0.81 0.78 69.3 0 0 93.25 42.49
  L 93.25 42.75
  A 0.07 0.06 -90.0 0 0 93.31 42.82
  Z"
/>
<path fill="#000000" d="
  M 34.68 85.26
  L 25.71 85.25
  Q 22.63 85.24 21.78 82.28
  C 20.25 76.89 23.22 74.71 28.30 74.75
  Q 37.25 74.84 46.18 74.64
  C 50.58 74.54 53.69 75.92 53.41 80.69
  C 52.98 87.80 53.21 95.12 53.26 102.25
  C 53.30 106.72 46.07 108.04 43.69 104.44
  C 42.07 102.00 42.72 96.23 42.88 93.24
  Q 42.92 92.55 42.43 93.03
  Q 30.84 104.47 19.32 116.07
  C 15.14 120.28 6.82 113.77 13.29 107.32
  Q 24.08 96.57 34.87 85.73
  Q 35.34 85.26 34.68 85.26
  Z"
/>
<path fill="#000000" d="
  M 112.86 105.39
  C 114.44 107.00 116.63 108.77 117.14 110.91
  C 118.50 116.70 111.76 119.13 107.52 114.89
  Q 96.67 104.03 85.75 93.15
  Q 85.28 92.68 85.27 93.35
  C 85.24 96.39 86.19 103.80 83.33 105.62
  C 78.41 108.74 74.68 105.08 74.74 100.03
  Q 74.85 90.75 74.63 81.50
  C 74.52 77.18 76.11 74.51 80.62 74.61
  Q 91.54 74.86 102.32 74.73
  Q 105.40 74.70 106.21 77.67
  C 108.75 86.86 99.02 85.20 94.01 85.27
  Q 92.56 85.29 93.60 86.30
  Q 103.42 95.71 112.86 105.39
  Z"
/>
</svg>
